<svg width="80" height="66" viewBox="0 0 80 66" fill="none" xmlns="http://www.w3.org/2000/svg">
<path d="M13.7361 52.5L1.43195 15.3754H8.59168L19.5699 48.9466H16.0166L27.4191 15.3754H33.7833L44.8677 48.9466H41.4204L52.6638 15.3754H59.2402L46.936 52.5H39.6172L29.4875 22.217H31.3968L21.108 52.5H13.7361ZM53.1892 52.5V15.3754H60.0838V46.6661H79.4946V52.5H53.1892Z" fill="white"/>
<path d="M2.54132 12.3442L1.24234 8.45838H1.81411L3.00762 12.0445H2.71896L3.95688 8.45838H4.4676L5.67776 12.0445H5.4002L6.61037 8.45838H7.13773L5.83875 12.3442H5.25587L4.12342 9.01906H4.2733L3.1353 12.3442H2.54132ZM13.0303 12.3886C12.7342 12.3886 12.4585 12.3387 12.2032 12.2388C11.9515 12.1388 11.7332 12.0001 11.5481 11.8224C11.3631 11.6411 11.2188 11.4301 11.1151 11.1896C11.0115 10.949 10.9597 10.6863 10.9597 10.4013C10.9597 10.1163 11.0115 9.85359 11.1151 9.61304C11.2188 9.37248 11.3631 9.16339 11.5481 8.98575C11.7332 8.80441 11.9515 8.66378 12.2032 8.56386C12.4548 8.46393 12.7305 8.41397 13.0303 8.41397C13.3264 8.41397 13.5984 8.46393 13.8463 8.56386C14.098 8.66008 14.3163 8.79886 14.5014 8.9802C14.6901 9.15784 14.8345 9.36693 14.9344 9.60749C15.038 9.84804 15.0898 10.1126 15.0898 10.4013C15.0898 10.69 15.038 10.9546 14.9344 11.1951C14.8345 11.4357 14.6901 11.6466 14.5014 11.828C14.3163 12.0056 14.098 12.1444 13.8463 12.2443C13.5984 12.3405 13.3264 12.3886 13.0303 12.3886ZM13.0303 11.8946C13.245 11.8946 13.443 11.8576 13.6243 11.7836C13.8093 11.7095 13.9685 11.6059 14.1017 11.4727C14.2386 11.3358 14.3441 11.1766 14.4181 10.9953C14.4958 10.814 14.5347 10.616 14.5347 10.4013C14.5347 10.1867 14.4958 9.98867 14.4181 9.80733C14.3441 9.62599 14.2386 9.46871 14.1017 9.33548C13.9685 9.19855 13.8093 9.09307 13.6243 9.01906C13.443 8.94504 13.245 8.90803 13.0303 8.90803C12.812 8.90803 12.6103 8.94504 12.4252 9.01906C12.2439 9.09307 12.0848 9.19855 11.9478 9.33548C11.8109 9.46871 11.7036 9.62599 11.6259 9.80733C11.5518 9.98867 11.5148 10.1867 11.5148 10.4013C11.5148 10.616 11.5518 10.814 11.6259 10.9953C11.7036 11.1766 11.8109 11.3358 11.9478 11.4727C12.0848 11.6059 12.2439 11.7095 12.4252 11.7836C12.6103 11.8576 12.812 11.8946 13.0303 11.8946ZM19.4356 12.3442V8.45838H20.951C21.2915 8.45838 21.582 8.51204 21.8226 8.61937C22.0631 8.72669 22.2482 8.88213 22.3777 9.08567C22.5072 9.28922 22.572 9.53162 22.572 9.81288C22.572 10.0941 22.5072 10.3365 22.3777 10.5401C22.2482 10.7399 22.0631 10.8935 21.8226 11.0008C21.582 11.1082 21.2915 11.1618 20.951 11.1618H19.7409L19.9907 10.9065V12.3442H19.4356ZM22.0335 12.3442L21.0454 10.9342H21.6394L22.6386 12.3442H22.0335ZM19.9907 10.962L19.7409 10.69H20.9344C21.2897 10.69 21.558 10.6141 21.7393 10.4624C21.9244 10.3069 22.0169 10.0904 22.0169 9.81288C22.0169 9.53532 21.9244 9.32067 21.7393 9.16894C21.558 9.01721 21.2897 8.94134 20.9344 8.94134H19.7409L19.9907 8.66378V10.962ZM26.9661 12.3442V8.45838H28.6037C29.0182 8.45838 29.3828 8.5398 29.6973 8.70264C30.0156 8.86547 30.2617 9.09307 30.4356 9.38544C30.6133 9.6778 30.7021 10.0164 30.7021 10.4013C30.7021 10.7862 30.6133 11.1248 30.4356 11.4172C30.2617 11.7095 30.0156 11.9371 29.6973 12.1C29.3828 12.2628 29.0182 12.3442 28.6037 12.3442H26.9661ZM27.5213 11.8613H28.5704C28.8924 11.8613 29.17 11.8002 29.4031 11.6781C29.64 11.556 29.8232 11.3857 29.9527 11.1674C30.0822 10.9453 30.147 10.69 30.147 10.4013C30.147 10.1089 30.0822 9.85359 29.9527 9.63524C29.8232 9.41689 29.64 9.24666 29.4031 9.12453C29.17 9.0024 28.8924 8.94134 28.5704 8.94134H27.5213V11.8613ZM35.0497 12.3442V8.45838H35.6048V11.8613H37.7087V12.3442H35.0497ZM41.2545 12.3442L43.0143 8.45838H43.5639L45.3291 12.3442H44.7463L43.1753 8.76925H43.3973L41.8263 12.3442H41.2545ZM42.004 11.3728L42.1538 10.9287H44.341L44.502 11.3728H42.004ZM49.4061 12.3442V8.45838H49.8613L52.4315 11.6503H52.1928V8.45838H52.7479V12.3442H52.2927L49.7225 9.15229H49.9612V12.3442H49.4061ZM57.4083 12.3442V8.45838H59.0459C59.4604 8.45838 59.8249 8.5398 60.1395 8.70264C60.4578 8.86547 60.7039 9.09307 60.8778 9.38544C61.0554 9.6778 61.1443 10.0164 61.1443 10.4013C61.1443 10.7862 61.0554 11.1248 60.8778 11.4172C60.7039 11.7095 60.4578 11.9371 60.1395 12.1C59.8249 12.2628 59.4604 12.3442 59.0459 12.3442H57.4083ZM57.9634 11.8613H59.0126C59.3346 11.8613 59.6121 11.8002 59.8453 11.6781C60.0821 11.556 60.2653 11.3857 60.3948 11.1674C60.5244 10.9453 60.5891 10.69 60.5891 10.4013C60.5891 10.1089 60.5244 9.85359 60.3948 9.63524C60.2653 9.41689 60.0821 9.24666 59.8453 9.12453C59.6121 9.0024 59.3346 8.94134 59.0126 8.94134H57.9634V11.8613Z" fill="white"/>
</svg>
